<svg id="Capa_1" data-name="Capa 1" xmlns="http://www.w3.org/2000/svg" viewBox="0 0 379.04 379.04"><defs><style>.cls-1{fill:#0062cc;}</style></defs><path class="cls-1" d="M873.74,1403.5c.56-4.37.86-8.8,1.72-13.12a54.68,54.68,0,0,1,14.63-28.14c10.17-10.41,20-21.25,30.95-30.78,16.67-14.51,34.78-14.43,50.84.62,17.08,16,33.46,32.82,49.43,50,11.86,12.73,11.73,32.25.22,45.34-8.53,9.71-17.94,18.67-27.1,27.81-1.77,1.76-2.11,2.91-.95,5.26,9.18,18.58,22.14,34.36,36.16,49.35a250.16,250.16,0,0,0,48,40.44c5.06,3.23,10.48,5.89,16.11,9,6.91-7,13.46-14,20.47-20.58,5.1-4.76,10.34-9.71,16.35-13.09a32.24,32.24,0,0,1,38.47,4.74c17.49,16.85,34.74,34,51.39,51.67,12.37,13.14,12.47,33,.51,46.63-10.49,11.93-21.71,23.26-33.12,34.32-8.73,8.46-19.67,13-31.76,14.51a16.57,16.57,0,0,0-2.45.69h-14.07c-.81-.22-1.62-.51-2.44-.66-8-1.46-16.11-2.37-23.94-4.43-27.79-7.28-53.14-20.2-77.23-35.45q-90.62-57.36-139.37-153.09c-9.13-17.93-16.28-36.68-20.2-56.5-1.25-6.37-1.75-12.89-2.59-19.34Zm21.54,3.25c.83,6.09,1.26,12.27,2.57,18.26,5.75,26.28,16.79,50.46,30.82,73.21,37.1,60.16,86.42,107.24,150.11,138.63,19.76,9.74,40.14,17.63,62.38,19.56,13.63,1.18,25.62-2.07,35.34-12.23,8-8.38,16.21-16.58,24.3-24.88a43.53,43.53,0,0,0,3.41-3.89c5.17-6.74,5.18-13.82-.57-20.15s-12-12.37-18.13-18.49c-9.49-9.53-18.94-19.08-28.55-28.49-6.94-6.79-14.35-6.82-21.65-.36-1.1,1-2.16,2-3.2,3.07-8.47,8.45-16.89,17-25.42,25.34-6.12,6-12.89,7.14-20.28,3.42-5.17-2.61-10.35-5.22-15.32-8.18-22.32-13.3-41.74-30.15-59.28-49.2-15.67-17-29.92-35.07-39.51-56.38-4.6-10.23-3.48-16.16,4.51-23.9,8.51-8.23,17.06-16.44,25.31-24.92,8.71-9,8.57-16-.17-25-6.89-7.07-13.94-14-20.91-21-7.58-7.59-15.1-15.26-22.75-22.77s-15.44-7.69-23.53-.53c-.92.81-1.79,1.69-2.66,2.57-7.6,7.58-15,15.34-22.81,22.72C899.63,1382.39,895.07,1393.43,895.28,1406.75Z" transform="translate(-873.74 -1299.12)"/><path class="cls-1" d="M1086.21,1299.12c8.55,2.22,17.19,4.13,25.62,6.71a198,198,0,0,1,73.51,41.29,204.16,204.16,0,0,1,52.89,72.14,210.58,210.58,0,0,1,13.8,45.46,21,21,0,0,0,.75,2.45v2.22c-.09.09-.23.15-.27.25-2.29,6.35-6,9.46-11,9.14-6-.39-9.57-3.85-10.92-11.06a179,179,0,0,0-30.87-72.87c-20.68-28.68-47.2-50.25-80.16-63.24-11.49-4.53-23.72-7.26-35.69-10.52-6.84-1.86-10.4-4.68-11-9.79-.62-5.33,1.78-8.94,8.13-12.18Z" transform="translate(-873.74 -1299.12)"/><path class="cls-1" d="M1082.89,1367.94c4.8,1.29,12,2.62,18.76,5.14,44.81,16.73,72.11,48.65,81.95,95.46,1.29,6.15-2.07,11.66-7.85,13.18-5.61,1.47-11.25-1.91-13.11-8-2.54-8.22-4.12-16.86-7.67-24.61-14.92-32.59-40.24-52.48-75.42-59.7-6.46-1.33-9.88-5.27-9.74-11.07S1074.61,1368,1082.89,1367.94Z" transform="translate(-873.74 -1299.12)"/></svg>