<svg id="Capa_1" data-name="Capa 1" xmlns="http://www.w3.org/2000/svg" viewBox="0 0 409.64 288.13"><defs><style>.cls-1{fill:#0062cc;}</style></defs><path class="cls-1" d="M858.8,1377c2.35-5.72,3.87-12,7.23-17,6.83-10.23,17.24-14.64,29.43-14.94.66,0,1.33,0,2,0q166.2,0,332.39,0c15.62,0,27.83,6.13,34.63,20.49a40.13,40.13,0,0,1,3.76,16.52q.36,107,.11,214c0,21.84-15.83,37-38.1,37q-137.79,0-275.59,0c-18.67,0-37.35-.39-56,.11-20.47.54-36.54-12-39.52-31.39a2.77,2.77,0,0,0-.34-.72Zm41.46-7.82c.92,1,1.34,1.53,1.8,2q67.62,67.27,135.35,134.44a40.56,40.56,0,0,0,13.9,9c15.06,5.6,28.19,1.46,39.39-9.69q66.75-66.44,133.53-132.85c.8-.79,1.53-1.65,2.67-2.89Zm2.24,239.48h322.07l-101-103c-5.9,6-11.28,11.74-16.9,17.19-17,16.47-37,21.91-59.88,15.83-10.55-2.8-19.37-8.68-27-16.41-5.31-5.38-10.59-10.8-16.33-16.65ZM883.08,1386V1592.2l101.36-103.26Zm361.1.32L1143.3,1488.75l100.88,102.83Z" transform="translate(-858.8 -1344.97)"/></svg>