<svg id="Capa_1" data-name="Capa 1" xmlns="http://www.w3.org/2000/svg" viewBox="0 0 637.88 639.19"><defs><style>.cls-1{fill:#0062cc;}</style></defs><path class="cls-1" d="M747,1808.81c11.63-42.53,22.9-83.76,34.17-125,3.09-11.33,6.42-22.6,9.15-34a14.08,14.08,0,0,0-1-9.28c-29.89-54.3-43.56-112.52-38.9-174.16,7.85-103.89,55.68-185.65,141.83-244,57.45-38.93,121.88-56.89,191-51.88,125.25,9.07,218,70.6,270.43,184.31,51.13,110.93,38.82,219.68-32.49,319.19-51.22,71.48-122.41,113.19-209.58,126.19-67.45,10.06-131.54-1.52-192.22-32.59a15.38,15.38,0,0,0-9.94-.88c-51.71,13.33-103.35,26.92-155,40.43C752.34,1807.64,750.23,1808.06,747,1808.81Zm76.1-75.29c2-.44,3.28-.67,4.49-1,28.72-7.52,57.49-14.89,86.13-22.71,6.25-1.71,11.14-1,16.75,2.32,62.54,36.95,129.42,47.26,199.88,29.9,133.62-32.91,218.79-165,195.49-300.69-23-134.15-150.46-237.83-300.09-214.92-60.14,9.21-111.4,36.64-152.46,81.58C818.87,1367.56,796.4,1438.1,805,1518.2c4.37,40.78,18.6,78.34,41.07,112.67a13.19,13.19,0,0,1,1.78,12.32c-3,9.73-5.5,19.63-8.18,29.46C834.21,1692.66,828.77,1712.68,823.09,1733.52Z" transform="translate(-746.99 -1169.62)"/><path class="cls-1" d="M904.82,1415.3c.45-26.52,10.85-48.3,29.56-66.45,5.81-5.64,12.7-8.78,21-8.56,4.44.12,8.91.51,13.31.11,8.62-.77,14,3.32,17.14,10.8,9,21.43,18.22,42.81,26.6,64.5,1.42,3.65.49,9.56-1.66,13a255,255,0,0,1-19.31,26.2c-4.62,5.62-5.17,10.55-1.4,16.84,25.81,43.17,61.65,74.51,108.48,93.2,6.76,2.7,12,1.61,16.46-4,7.73-9.72,15.67-19.28,23.37-29,5.44-6.89,8.73-8.71,16.48-5.17q33.84,15.45,67.07,32.2c2.67,1.35,5,6.45,4.89,9.76-.61,33.5-10.45,49.76-46.65,64.88-20.45,8.55-41.6,6.4-62.62.53-76.1-21.23-132.18-69.1-177.11-132.12-14-19.63-26.57-39.89-32-63.7C906.63,1430.71,906,1423,904.82,1415.3Z" transform="translate(-746.99 -1169.62)"/></svg>