<?xml version="1.0" encoding="utf-8"?>
<!-- Generator: Adobe Illustrator 23.0.5, SVG Export Plug-In . SVG Version: 6.00 Build 0)  -->
<svg version="1.1" id="Capa_1" xmlns="http://www.w3.org/2000/svg" xmlns:xlink="http://www.w3.org/1999/xlink" x="0px" y="0px"
	 viewBox="0 0 306.3 108" style="enable-background:new 0 0 306.3 108;" xml:space="preserve">
<style type="text/css">
	.st0{fill:#00A0DF;}
	.st1{fill:none;}
</style>
<path d="M182.9,74.4c-2,0-3.6,1.2-3.6,3.7s1.6,3.7,3.6,3.7c2.1,0,3.2-1,3.3-2.5h2c-0.1,2.4-2.1,4-5.2,4c-3,0-5.4-1.7-5.4-5.1
	s2.5-5.1,5.4-5.1c3.1,0,5,1.5,5.2,3.8h-1.9C186.1,75.4,185,74.4,182.9,74.4"/>
<path d="M200.4,78.1c0,3.4-2.5,5.1-5.6,5.1s-5.6-1.7-5.6-5.1s2.5-5.1,5.6-5.1C198,72.9,200.4,74.6,200.4,78.1 M198.6,78.1
	c0-2.5-1.6-3.7-3.8-3.7c-2.1,0-3.8,1.2-3.8,3.7s1.6,3.7,3.8,3.7C196.9,81.7,198.6,80.6,198.6,78.1"/>
<polygon points="211.8,73.2 211.8,82.9 210,82.9 203.7,75.5 203.6,75.5 203.6,82.9 202,82.9 202,73.2 203.9,73.2 210.1,80.5 
	210.2,80.5 210.2,73.2 "/>
<path d="M218,74.3c-1.5,0-2.6,0.4-2.6,1.4c0,0.8,0.6,1.1,1.5,1.2l3.5,0.4c1.5,0.2,2.7,0.8,2.7,2.8c0,2.3-2,3.1-5,3.1
	c-2.8,0-4.9-0.8-5-3.5h1.8c0.1,1.7,1.5,2.1,3.2,2.1c1.8,0,3-0.5,3-1.6c0-1-0.7-1.3-1.6-1.4l-3.4-0.4c-1.5-0.2-2.7-0.8-2.7-2.6
	c0-2,1.9-2.9,4.5-2.9s4.7,0.8,4.8,3.2H221C221,74.7,219.6,74.3,218,74.3"/>
<polygon points="233.7,74.7 229.6,74.7 229.6,82.9 227.9,82.9 227.9,74.7 223.8,74.7 223.8,73.2 233.7,73.2 "/>
<path d="M244.9,82.9h-2l-2.4-4h-4v4h-1.7v-9.7h6.5c2.3,0,3.4,0.8,3.4,2.9c0,1.8-1.1,2.5-2.3,2.7v0.1L244.9,82.9z M242.9,76.1
	c0-1-0.5-1.4-1.6-1.4h-4.7v2.8h4.7C242.4,77.5,242.9,77,242.9,76.1"/>
<path d="M256,73.2v6c0,2.8-2,4-4.9,4s-4.9-1.2-4.9-4v-6h1.7v6c0,1.8,1.3,2.6,3.2,2.6s3.2-0.8,3.2-2.6v-6H256z"/>
<rect x="258" y="73.2" width="1.7" height="9.7"/>
<polygon points="273.5,82.9 271.8,82.9 271.8,75 271.8,75 268.4,82.9 266.9,82.9 263.4,74.9 263.4,74.9 263.4,82.9 261.8,82.9 
	261.8,73.2 264.5,73.2 267.6,80.6 267.7,80.6 270.8,73.2 273.5,73.2 "/>
<path d="M286.3,78.1c0,3.4-2.5,5.1-5.6,5.1s-5.6-1.7-5.6-5.1s2.5-5.1,5.6-5.1C283.8,72.9,286.3,74.6,286.3,78.1 M284.5,78.1
	c0-2.5-1.6-3.7-3.8-3.7s-3.8,1.2-3.8,3.7s1.6,3.7,3.8,3.7S284.5,80.6,284.5,78.1"/>
<path d="M292,74.3c-1.5,0-2.6,0.4-2.6,1.4c0,0.8,0.6,1.1,1.5,1.2l3.5,0.4c1.5,0.2,2.7,0.8,2.7,2.8c0,2.3-2,3.1-5,3.1
	c-2.8,0-4.9-0.8-5-3.5h1.8c0.1,1.7,1.5,2.1,3.2,2.1c1.8,0,3-0.5,3-1.6c0-1-0.7-1.3-1.6-1.4l-3.4-0.4c-1.5-0.2-2.7-0.8-2.7-2.6
	c0-2,1.9-2.9,4.5-2.9s4.7,0.8,4.8,3.2H295C294.9,74.7,293.6,74.3,292,74.3"/>
<polygon points="223.3,90.4 223.3,100.2 221.4,100.2 215.1,92.7 215.1,92.7 215.1,100.2 213.5,100.2 213.5,90.4 215.4,90.4 
	221.6,97.7 221.6,97.7 221.6,90.4 "/>
<polygon points="227,94.4 233.7,94.4 233.7,95.8 227,95.8 227,98.7 234.1,98.7 234.1,100.2 225.3,100.2 225.3,90.4 233.9,90.4 
	233.9,91.9 227,91.9 "/>
<path d="M245.9,100.2h-1.4v-1.5c-0.8,1.2-2.2,1.7-3.8,1.7c-3.2,0-5.7-1.7-5.7-5.1s2.4-5.1,5.6-5.1c3.4,0,4.9,1.5,5.2,3.5h-1.9
	c-0.2-1-1-2-3.3-2c-2.1,0-3.8,1.2-3.8,3.7s1.6,3.7,3.9,3.7c2,0,3-1,3.2-2.6h-3.1V95h5v5.2H245.9z"/>
<path d="M258.5,95.3c0,3.4-2.5,5.1-5.6,5.1s-5.6-1.7-5.6-5.1s2.5-5.1,5.6-5.1C256,90.2,258.5,91.8,258.5,95.3 M256.7,95.3
	c0-2.5-1.6-3.7-3.8-3.7s-3.8,1.2-3.8,3.7s1.6,3.7,3.8,3.7S256.7,97.8,256.7,95.3"/>
<path d="M265,91.6c-2,0-3.6,1.2-3.6,3.7S263,99,265,99c2.1,0,3.2-1,3.3-2.5h2c-0.1,2.4-2.1,4-5.2,4c-3,0-5.4-1.7-5.4-5.1
	s2.5-5.1,5.4-5.1c3.1,0,5,1.5,5.2,3.8h-1.9C268.2,92.7,267.1,91.6,265,91.6"/>
<rect x="271.8" y="90.4" width="1.7" height="9.7"/>
<path d="M286.3,95.3c0,3.4-2.5,5.1-5.6,5.1s-5.6-1.7-5.6-5.1s2.5-5.1,5.6-5.1C283.8,90.2,286.3,91.8,286.3,95.3 M284.5,95.3
	c0-2.5-1.6-3.7-3.8-3.7s-3.8,1.2-3.8,3.7s1.6,3.7,3.8,3.7S284.5,97.8,284.5,95.3"/>
<path d="M292,91.6c-1.5,0-2.6,0.4-2.6,1.4c0,0.8,0.6,1.1,1.5,1.2l3.5,0.4c1.5,0.2,2.7,0.8,2.7,2.8c0,2.3-2,3.1-5,3.1
	c-2.8,0-4.9-0.8-5-3.5h1.8c0.1,1.7,1.5,2.1,3.2,2.1c1.8,0,3-0.5,3-1.6c0-1-0.7-1.3-1.6-1.4l-3.4-0.4c-1.5-0.2-2.7-0.8-2.7-2.6
	c0-2,1.9-2.9,4.5-2.9s4.7,0.8,4.8,3.2H295C294.9,91.9,293.6,91.6,292,91.6"/>
<path d="M297.1,30.3h-6c-0.3,0-0.5,0.2-0.5,0.5c0,0.7-0.1,2-0.1,2.4c0,0.1-0.1,0.1-0.1,0c-2-2.2-5.2-3.6-8.6-3.6s-6.9,1.4-9.5,3.9
	c-2.8,2.7-4.3,6.3-4.3,10.1c0,3.9,1.5,7.5,4.3,10.1c2.6,2.5,6,3.9,9.5,3.9c3.4,0,6.5-1.4,8.6-3.6h0.1c0,0.4,0.1,1.7,0.1,2.5
	c0,0.3,0.2,0.5,0.5,0.5h6c0.3,0,0.5-0.2,0.5-0.5V30.8C297.6,30.5,297.4,30.3,297.1,30.3 M282.8,50.7c-3.9,0-7-3.2-7-7
	c0-3.9,3.1-7,7-7s7,3.1,7,7C289.9,47.6,286.7,50.7,282.8,50.7"/>
<path d="M229.6,32.9c0-0.4-0.1-1.5-0.1-2.1c0-0.3-0.2-0.5-0.5-0.5h-6c-0.3,0-0.5,0.2-0.5,0.5v25.8c0,0.3,0.2,0.5,0.5,0.5h6.7
	c0.3,0,0.5-0.2,0.5-0.5v-14c0-3.2,2.3-5.9,5-5.9c2.9,0,5.1,2.4,5.1,5.7v14.2c0,0.3,0.2,0.5,0.5,0.5h6.7c0.3,0,0.5-0.2,0.5-0.5v-14
	c0-3.2,2.3-5.9,5-5.9c2.9,0,5,2.4,5,5.7v14.2c0,0.3,0.2,0.5,0.5,0.5h6.7c0.3,0,0.5-0.2,0.5-0.5V42.2c0-3.4-1.1-6.6-3.2-8.9
	c-2.2-2.4-5.3-3.7-8.7-3.7c-3.4,0-6.5,1.4-8.5,4h-0.1c-2.1-2.5-5.1-4-8.5-4C234,29.6,231.4,30.8,229.6,32.9
	C229.6,33,229.6,32.9,229.6,32.9"/>
<path d="M210.8,33.9c0-0.6-0.1-2.3-0.2-3.1c0-0.3-0.2-0.5-0.5-0.5h-6c-0.3,0-0.5,0.2-0.5,0.5v25.8c0,0.3,0.2,0.5,0.5,0.5h6.7
	c0.3,0,0.5-0.2,0.5-0.5V45.1c0-5,3.1-8.2,8-8.2h0.4c0.3,0,0.5-0.2,0.5-0.5v-6.1c0-0.3-0.2-0.5-0.5-0.5c-0.2,0-0.4,0-0.4,0
	c-2.2,0-4.3,0.7-6,1.9c-0.9,0.6-1.7,1.4-2.4,2.3C210.9,34,210.8,34,210.8,33.9"/>
<path d="M196.6,33.8c-2.8-2.7-6.5-4.1-10.4-4.1s-7.6,1.5-10.4,4.1c-2.8,2.7-4.3,6.2-4.3,9.9c0,7.7,6.6,14,14.7,14
	c8.2,0,14.8-6.3,14.8-14C200.9,40,199.4,36.4,196.6,33.8 M186.1,50.7c-3.8,0-7-3.2-7-7s3.2-7,7-7c3.9,0,7.1,3.1,7.1,7
	C193.2,47.6,190,50.7,186.1,50.7"/>
<path d="M155.7,28.3v1.9c0,0.1-0.1,0.1-0.1,0.1h-3.9c-0.3,0-0.5,0.2-0.5,0.5v5.5c0,0.3,0.2,0.5,0.5,0.5h3.9c0.1,0,0.1,0.1,0.1,0.1
	v19.6c0,0.3,0.2,0.5,0.5,0.5h6.7c0.3,0,0.5-0.2,0.5-0.5V37c0-0.1,0.1-0.1,0.1-0.1h8.4c0.3,0,0.5-0.2,0.5-0.5v-5.5
	c0-0.3-0.2-0.5-0.5-0.5h-8.4c-0.1,0-0.1-0.1-0.1-0.1v-1.4c0-1.3,0.4-4.3,4.4-4.3c1,0,2,0.2,3.2,0.7c0.2,0.1,0.3,0.1,0.5,0.2
	c0.3,0.1,0.6-0.1,0.7-0.4c0.3-1.9,0.6-3.7,0.9-5.6c0-0.2-0.1-0.5-0.3-0.5l-0.3-0.1c-1.6-0.7-3.5-1-5.5-1c-3.3,0-6.2,1.1-8.2,3.1
	C156.8,22.7,155.7,25.4,155.7,28.3"/>
<path d="M148.4,30.3h-6c-0.3,0-0.5,0.2-0.5,0.5c0,0.8-0.1,1.6-0.1,2.4c0,0.1-0.1,0.1-0.1,0c-2-2.2-5.2-3.6-8.6-3.6
	c-3.4,0-6.9,1.4-9.5,3.9c-2.8,2.7-4.3,6.3-4.3,10.1c0,3.9,1.5,7.5,4.3,10.1c2.6,2.5,6,3.9,9.5,3.9c3.4,0,6.5-1.4,8.6-3.6h0.1
	c0,0.8,0.1,1.6,0.1,2.5c0,0.3,0.2,0.5,0.5,0.5h6c0.3,0,0.5-0.2,0.5-0.5V30.8C148.9,30.5,148.7,30.3,148.4,30.3 M134.1,50.7
	c-3.9,0-7-3.2-7-7c0-3.9,3.1-7,7-7s7,3.1,7,7C141.2,47.6,138,50.7,134.1,50.7"/>
<path class="st0" d="M136.4,18.6c-0.1-0.3-0.4-0.5-0.7-0.5c-5.7-1.3-11.5-2.3-17.3-2.8c-0.1,0-0.1-0.1-0.1-0.2
	c0.3-1.2,0.7-2.4,1.1-3.6c0.1-0.4,0-0.8-0.3-1.1c-1.8-1.5-3.9-2.5-6.2-3c-0.6-0.1-1.1,0.2-1.2,0.8c-0.4,2.2-0.8,4.3-1.3,6.4
	c0,0.1-0.1,0.1-0.1,0.1c-2-0.1-4-0.1-6-0.1c-0.1,0-0.1-0.1-0.1-0.2c0.2-1,0.5-1.9,0.7-2.9c0.1-0.4,0-0.7-0.3-1
	c-1.7-1.6-3.9-2.4-6.2-2.3c-0.4,0-0.8,0.3-0.9,0.7c-0.6,2-1.2,4-1.8,6c0,0.1-0.1,0.1-0.1,0.1c-5.4,0.4-10.8,1.2-16.2,2.3
	c-0.4,0.1-0.6,0.3-0.8,0.7c-0.8,2.5,0.1,5.2,2.2,6.8C81,25,81.3,25,81.6,25c4-0.8,7.9-1.4,11.9-1.9c0.1,0,0.2,0.1,0.1,0.2
	c-2.8,13.4-3.5,27.2-2.3,40.8c0,0.3,0.2,0.5,0.4,0.7c2.3,1.8,5.1,2.8,7.9,2.8c0.4,0,0.8-0.3,1-0.7c1.3-4.2,2.5-8.3,3.6-12.5
	c0-0.1,0.3-0.1,0.2,0c-0.2,5.4-0.1,10.8,0.3,16.3c0,0.2,0.1,0.4,0.3,0.6c1.9,2.1,4.8,3,7.5,2.3c0.5-0.1,0.8-0.6,0.8-1.1
	c-1.7-16.9-0.6-34,3.2-50.5c0-0.1,0.1-0.1,0.1-0.1c6.4,0.1,12.8,0.6,19.1,1.5c0.5,0.1,1-0.3,1.1-0.8C137.2,21.3,137,19.9,136.4,18.6
	 M108.6,22.1c-2.4,9.2-5.5,18.2-9.4,26.9c0,0.2-0.2,0.2-0.2,0c0.5-9,1.6-17.8,3.4-26.6c0-0.1,0.1-0.1,0.1-0.1c2-0.1,4-0.2,6-0.3
	C108.6,22,108.7,22.1,108.6,22.1"/>
<path d="M81.5,30.3h-6c-0.3,0-0.5,0.2-0.5,0.5c0,0.8-0.1,1.6-0.1,2.4c0,0.1-0.1,0.1-0.1,0c-2-2.2-5.2-3.6-8.6-3.6s-6.9,1.4-9.5,3.9
	c-2.8,2.7-4.3,6.3-4.3,10.1c0,3.9,1.5,7.5,4.3,10.1c2.6,2.5,6,3.9,9.5,3.9c3.4,0,6.5-1.4,8.6-3.6h0.1c0,0.8,0.1,1.6,0.1,2.5
	c0,0.3,0.2,0.5,0.5,0.5h6c0.3,0,0.5-0.2,0.5-0.5V30.8C82,30.5,81.8,30.3,81.5,30.3 M67.2,50.7c-3.9,0-7-3.2-7-7c0-3.9,3.1-7,7-7
	s7,3.1,7,7S71.1,50.7,67.2,50.7"/>
<path d="M49.2,18.4h-6.7c-0.3,0-0.5,0.2-0.5,0.5v37.7c0,0.3,0.2,0.5,0.5,0.5h6.7c0.3,0,0.5-0.2,0.5-0.5V18.9
	C49.7,18.6,49.5,18.4,49.2,18.4"/>
<path d="M35.1,33.6c-2.6-2.5-6.1-3.9-9.5-3.9c-2.1,0-4.2,0.6-6.1,1.6c-0.9,0.5-1.8,1.2-2.5,1.9h-0.1c0-0.4-0.1-1.7-0.1-2.4
	c0-0.3-0.2-0.5-0.5-0.5h-6c-0.3,0-0.5,0.2-0.5,0.5v37.1c0,0.3,0.2,0.5,0.5,0.5H17c0.3,0,0.5-0.2,0.5-0.5V54.4c0-0.1,0.1-0.1,0.1,0
	c2,2.1,5,3.3,8.2,3.3c3.4,0,6.8-1.4,9.3-3.9c2.7-2.6,4.2-6.2,4.2-10.1S37.8,36.2,35.1,33.6 M24.5,50.7c-3.9,0-7-3.2-7-7s3.2-7,7-7
	s7,3.2,7,7C31.6,47.6,28.4,50.7,24.5,50.7"/>
<path class="st1" d="M487.6,1691.1"/>
<path class="st1" d="M487.6-1179"/>
</svg>
