<svg width="15" height="15" viewBox="0 0 15 15" fill="none" xmlns="http://www.w3.org/2000/svg">
<path d="M7.5 0C3.36316 0 0 3.36316 0 7.5C0 11.6368 3.36316 15 7.5 15C11.6368 15 15 11.6368 15 7.5C15 3.36316 11.6368 0 7.5 0ZM0.852635 7.91052H3.55263C3.58421 8.87368 3.69474 9.78947 3.9 10.6263H1.62631C1.18421 9.80526 0.915793 8.88947 0.852635 7.91052ZM7.91052 3.53685V0.900002C8.74736 1.15263 9.48947 2.14737 9.99473 3.53685H7.91052ZM10.2474 4.37369C10.4526 5.19474 10.5947 6.11053 10.6105 7.08948H7.91052V4.37369H10.2474ZM7.08948 0.900002V3.53685H5.00526C5.49474 2.13158 6.25264 1.15263 7.08948 0.900002ZM7.08948 4.37369V7.08948H4.38947C4.42105 6.12632 4.54736 5.19474 4.75263 4.37369H7.08948ZM3.55263 7.08948H0.852635C0.915793 6.11053 1.18421 5.19474 1.61053 4.37369H3.88421C3.69473 5.21053 3.56842 6.11053 3.55263 7.08948ZM4.38947 7.91052H7.08948V10.6263H4.75263C4.54736 9.80526 4.40526 8.88947 4.38947 7.91052ZM7.08948 11.4632V14.1C6.25264 13.8474 5.51053 12.8526 5.00526 11.4632H7.08948ZM7.91052 14.1V11.4632H9.99473C9.50526 12.8684 8.74736 13.8474 7.91052 14.1ZM7.91052 10.6263V7.91052H10.6105C10.5789 8.87368 10.4526 9.80526 10.2474 10.6263H7.91052ZM11.4474 7.91052H14.1474C14.0842 8.88947 13.8158 9.80526 13.3895 10.6263H11.1158C11.3053 9.78947 11.4316 8.88947 11.4474 7.91052ZM11.4474 7.08948C11.4158 6.12632 11.3053 5.21053 11.1 4.37369H13.3737C13.8158 5.19474 14.0842 6.11053 14.1316 7.08948H11.4474ZM12.8526 3.53685H10.879C10.579 2.58948 10.1684 1.8 9.67894 1.2C10.9579 1.6421 12.0632 2.46316 12.8526 3.53685ZM5.32105 1.2C4.83158 1.8 4.42105 2.60527 4.12105 3.53685H2.14736C2.93684 2.46316 4.04211 1.6421 5.32105 1.2ZM2.14736 11.4632H4.12105C4.42105 12.4105 4.83158 13.2 5.32105 13.8C4.04211 13.3579 2.93684 12.5368 2.14736 11.4632ZM9.67894 13.8C10.1684 13.2 10.579 12.3947 10.879 11.4632H12.8526C12.0632 12.5368 10.9579 13.3579 9.67894 13.8Z" fill="#2168F5"/>
</svg>
