<svg width="18" height="11" viewBox="0 0 18 11" fill="none" xmlns="http://www.w3.org/2000/svg">
<path fill-rule="evenodd" clip-rule="evenodd" d="M17.2336 4.88161C17.2336 4.86495 16.3339 3.64868 14.8844 2.43241C14.8374 2.3926 14.7896 2.35254 14.7408 2.31229L17.1779 1L16.7038 0.119529L13.8648 1.64823C12.6114 0.779881 10.9895 -0.00012207 9.21957 -0.00012207C4.80435 -0.00012207 1.23886 4.83163 1.20553 4.88161L1.0056 5.16485L1.18887 5.44809C1.19122 5.45044 1.20136 5.46334 1.21901 5.48579L1.21901 5.48579C1.36625 5.67305 2.03606 6.52496 3.06513 7.46342L0.526367 8.83045L1.00047 9.71092L3.88236 8.15913C5.30205 9.28319 7.17239 10.3298 9.21957 10.3298C11.5188 10.3298 13.5682 9.01359 14.8844 7.89729C16.3506 6.66436 17.2336 5.44809 17.2336 5.44809L17.4169 5.16485L17.2336 4.88161ZM4.84047 7.64322C5.99364 8.49271 7.53821 9.3135 9.21957 9.3135C11.2522 9.3135 13.085 8.11389 14.2679 7.11422C15.151 6.36446 15.8174 5.59805 16.184 5.16485C15.4509 4.28181 14.7511 3.61536 14.2679 3.21549C14.1173 3.08819 13.9561 2.95765 13.7853 2.82676L12.3069 3.62282C12.5405 4.08729 12.6722 4.61119 12.6722 5.16482C12.6722 7.0642 11.1227 8.61369 9.22329 8.61369C7.9517 8.61369 6.83693 7.91921 6.23893 6.89021L4.84047 7.64322ZM3.99359 6.96348C3.52434 6.55592 2.90277 5.94489 2.25519 5.16485C2.62174 4.73166 3.28818 3.96525 4.17123 3.21549C5.35417 2.21582 7.18691 1.01621 9.21957 1.01621C10.5653 1.01621 11.8234 1.54201 12.8633 2.18748L11.7285 2.79855C11.099 2.13257 10.2082 1.71595 9.22329 1.71595C7.32391 1.71595 5.77442 3.26545 5.77442 5.16482C5.77442 5.43662 5.80615 5.70126 5.86609 5.95521L3.99359 6.96348Z" fill="#9197A9"/>
</svg>
