<svg width="17" height="11" viewBox="0 0 17 11" fill="none" xmlns="http://www.w3.org/2000/svg">
<path fill-rule="evenodd" clip-rule="evenodd" d="M13.8788 2.43254C15.3283 3.64881 16.228 4.86507 16.228 4.88174L16.4113 5.16498L16.228 5.44822C16.228 5.44822 15.345 6.66449 13.8788 7.89742C12.5626 9.01372 10.5132 10.33 8.21398 10.33C4.02202 10.33 0.571569 5.94144 0.213413 5.48591C0.195762 5.46346 0.185621 5.45056 0.183273 5.44822L0 5.16498L0.199935 4.88174C0.233257 4.83175 3.79876 0 8.21398 0C10.5132 0 12.5626 1.31624 13.8788 2.43254ZM3.16563 7.11434C4.34858 8.11401 6.18131 9.31362 8.21398 9.31362C10.2466 9.31362 12.0794 8.11401 13.2623 7.11434C14.1454 6.36458 14.8118 5.59817 15.1784 5.16498C14.4453 4.28193 13.7455 3.61548 13.2623 3.21561C12.0794 2.21594 10.2466 1.01633 8.21398 1.01633C6.18131 1.01633 4.34858 2.21594 3.16563 3.21561C2.28259 3.96537 1.61614 4.73178 1.24959 5.16498C1.98268 6.04802 2.68245 6.71447 3.16563 7.11434ZM4.76882 5.16495C4.76882 3.26557 6.31831 1.71608 8.21769 1.71608C10.1171 1.71608 11.6666 3.26557 11.6666 5.16495C11.6666 7.06432 10.1171 8.61382 8.21769 8.61382C6.31831 8.61382 4.76882 7.06432 4.76882 5.16495Z" fill="#2168F5"/>
</svg>
