<svg width="14" height="18" viewBox="0 0 14 18" fill="none" xmlns="http://www.w3.org/2000/svg">
<path d="M2.29906 17.178H11.7009C12.3105 17.1774 12.8949 16.935 13.3259 16.504C13.7569 16.0729 13.9994 15.4885 14 14.879V5.695C14 5.56513 13.9484 5.44058 13.8566 5.34874C13.7647 5.25691 13.6402 5.20532 13.5103 5.20532H12.1417V2.69325C12.1417 1.97896 11.8579 1.29392 11.3528 0.788835C10.8477 0.283752 10.1627 0 9.44841 0H4.56383C3.84954 0 3.1645 0.283752 2.65942 0.788835C2.15434 1.29392 1.87058 1.97896 1.87058 2.69325C1.87058 2.82312 1.92218 2.94767 2.01401 3.03951C2.10584 3.13134 2.23039 3.18293 2.36027 3.18293C2.49014 3.18293 2.61469 3.13134 2.70652 3.03951C2.79836 2.94767 2.84995 2.82312 2.84995 2.69325C2.84995 2.2387 3.03052 1.80277 3.35193 1.48135C3.67335 1.15993 4.10928 0.979364 4.56383 0.979364H9.44841C9.90296 0.979364 10.3389 1.15993 10.6603 1.48135C10.9817 1.80277 11.1623 2.2387 11.1623 2.69325V5.20532H0.489682C0.35981 5.20532 0.235258 5.25691 0.143425 5.34874C0.0515914 5.44058 0 5.56513 0 5.695V14.879C0.000648112 15.4885 0.243078 16.0729 0.674094 16.504C1.10511 16.935 1.68951 17.1774 2.29906 17.178ZM0.979364 6.18468H13.0206V14.879C13.02 15.2288 12.8807 15.5641 12.6334 15.8114C12.386 16.0588 12.0507 16.198 11.7009 16.1987H2.29906C1.94925 16.198 1.61396 16.0588 1.36661 15.8114C1.11926 15.5641 0.980011 15.2288 0.979364 14.879V6.18468Z" fill="#2168F5"/>
<path d="M6.51071 11.1207V12.0682C6.51071 12.1981 6.5623 12.3226 6.65414 12.4144C6.74597 12.5063 6.87052 12.5579 7.00039 12.5579C7.13027 12.5579 7.25482 12.5063 7.34665 12.4144C7.43849 12.3226 7.49008 12.1981 7.49008 12.0682V11.1207C7.57351 11.0506 7.6403 10.9628 7.68561 10.8637C7.73092 10.7646 7.75362 10.6567 7.75206 10.5477C7.75206 10.3484 7.67286 10.1572 7.5319 10.0162C7.39094 9.87526 7.19975 9.79607 7.00039 9.79607C6.80104 9.79607 6.60985 9.87526 6.46889 10.0162C6.32793 10.1572 6.24873 10.3484 6.24873 10.5477C6.24717 10.6567 6.26987 10.7646 6.31518 10.8637C6.36049 10.9628 6.42728 11.0506 6.51071 11.1207Z" fill="#2168F5"/>
</svg>
