<?xml version="1.0" encoding="utf-8"?>
<!-- Generator: Adobe Illustrator 22.0.0, SVG Export Plug-In . SVG Version: 6.00 Build 0)  -->
<svg version="1.1" id="Capa_1" xmlns="http://www.w3.org/2000/svg" xmlns:xlink="http://www.w3.org/1999/xlink" x="0px" y="0px"
	 viewBox="0 0 298.7 101" style="enable-background:new 0 0 298.7 101;" xml:space="preserve">
<style type="text/css">
	.st0{fill:#323E48;}
	.st1{fill:#00A0DF;}
</style>
<path class="st0" d="M179.2,70.4c-2,0-3.6,1.2-3.6,3.7c0,2.5,1.6,3.7,3.6,3.7c2.1,0,3.2-1,3.3-2.5h2c-0.1,2.4-2.1,4-5.2,4
	c-3,0-5.4-1.7-5.4-5.1s2.5-5.1,5.4-5.1c3.1,0,5,1.5,5.2,3.8h-1.9C182.3,71.4,181.2,70.4,179.2,70.4"/>
<path class="st0" d="M196.6,74.1c0,3.4-2.5,5.1-5.6,5.1c-3.1,0-5.6-1.7-5.6-5.1c0-3.4,2.5-5.1,5.6-5.1
	C194.2,68.9,196.6,70.6,196.6,74.1 M194.8,74.1c0-2.5-1.6-3.7-3.8-3.7c-2.1,0-3.8,1.2-3.8,3.7c0,2.5,1.6,3.7,3.8,3.7
	C193.2,77.7,194.8,76.6,194.8,74.1"/>
<polygon class="st0" points="208,69.2 208,78.9 206.2,78.9 199.9,71.5 199.8,71.5 199.8,78.9 198.2,78.9 198.2,69.2 200.1,69.2 
	206.3,76.5 206.4,76.5 206.4,69.2 "/>
<path class="st0" d="M214.3,70.3c-1.5,0-2.6,0.4-2.6,1.4c0,0.8,0.6,1.1,1.5,1.2l3.5,0.4c1.5,0.2,2.7,0.8,2.7,2.8c0,2.3-2,3.1-5,3.1
	c-2.8,0-4.9-0.8-5-3.5h1.8c0.1,1.7,1.5,2.1,3.2,2.1c1.8,0,3-0.5,3-1.6c0-1-0.7-1.3-1.6-1.4l-3.4-0.4c-1.5-0.2-2.7-0.8-2.7-2.6
	c0-2,1.9-2.9,4.5-2.9c2.6,0,4.7,0.8,4.8,3.2h-1.8C217.2,70.7,215.8,70.3,214.3,70.3"/>
<polygon class="st0" points="229.9,70.7 225.8,70.7 225.8,78.9 224.1,78.9 224.1,70.7 220,70.7 220,69.2 229.9,69.2 "/>
<path class="st0" d="M241.1,78.9h-2l-2.4-4h-4v4h-1.7v-9.7h6.5c2.3,0,3.4,0.8,3.4,2.9c0,1.8-1.1,2.5-2.3,2.7v0.1L241.1,78.9z
	 M239.1,72.1c0-1-0.5-1.4-1.6-1.4h-4.7v2.8h4.7C238.6,73.5,239.1,73,239.1,72.1"/>
<path class="st0" d="M252.2,69.2v6c0,2.8-2,4-4.9,4s-4.9-1.2-4.9-4v-6h1.7v6c0,1.8,1.3,2.6,3.2,2.6c1.9,0,3.2-0.8,3.2-2.6v-6H252.2z
	"/>
<rect x="254.2" y="69.2" class="st0" width="1.7" height="9.7"/>
<polygon class="st0" points="269.7,78.9 268,78.9 268,71 268,71 264.6,78.9 263.1,78.9 259.6,70.9 259.6,70.9 259.6,78.9 258,78.9 
	258,69.2 260.7,69.2 263.8,76.6 263.9,76.6 267,69.2 269.7,69.2 "/>
<path class="st0" d="M282.5,74.1c0,3.4-2.5,5.1-5.6,5.1c-3.1,0-5.6-1.7-5.6-5.1c0-3.4,2.5-5.1,5.6-5.1
	C280,68.9,282.5,70.6,282.5,74.1 M280.7,74.1c0-2.5-1.6-3.7-3.8-3.7c-2.1,0-3.8,1.2-3.8,3.7c0,2.5,1.6,3.7,3.8,3.7
	C279,77.7,280.7,76.6,280.7,74.1"/>
<path class="st0" d="M288.2,70.3c-1.5,0-2.6,0.4-2.6,1.4c0,0.8,0.6,1.1,1.5,1.2l3.5,0.4c1.5,0.2,2.7,0.8,2.7,2.8c0,2.3-2,3.1-5,3.1
	c-2.8,0-4.9-0.8-5-3.5h1.8c0.1,1.7,1.5,2.1,3.2,2.1c1.8,0,3-0.5,3-1.6c0-1-0.7-1.3-1.6-1.4l-3.4-0.4c-1.5-0.2-2.7-0.8-2.7-2.6
	c0-2,1.9-2.9,4.5-2.9c2.6,0,4.7,0.8,4.8,3.2h-1.8C291.1,70.7,289.8,70.3,288.2,70.3"/>
<polygon class="st0" points="219.5,86.4 219.5,96.2 217.7,96.2 211.3,88.7 211.3,88.7 211.3,96.2 209.7,96.2 209.7,86.4 211.6,86.4 
	217.8,93.7 217.8,93.7 217.8,86.4 "/>
<polygon class="st0" points="223.2,90.4 229.9,90.4 229.9,91.8 223.2,91.8 223.2,94.7 230.3,94.7 230.3,96.2 221.5,96.2 221.5,86.4 
	230.1,86.4 230.1,87.9 223.2,87.9 "/>
<path class="st0" d="M242.1,96.2h-1.4v-1.5c-0.8,1.2-2.2,1.7-3.8,1.7c-3.2,0-5.7-1.7-5.7-5.1c0-3.4,2.4-5.1,5.6-5.1
	c3.4,0,4.9,1.5,5.2,3.5h-1.9c-0.2-1-1-2-3.3-2c-2.1,0-3.8,1.2-3.8,3.7c0,2.5,1.6,3.7,3.9,3.7c2,0,3-1,3.2-2.6H237V91h5V96.2z"/>
<path class="st0" d="M254.7,91.3c0,3.4-2.5,5.1-5.6,5.1c-3.1,0-5.6-1.7-5.6-5.1c0-3.4,2.5-5.1,5.6-5.1
	C252.3,86.2,254.7,87.8,254.7,91.3 M252.9,91.3c0-2.5-1.6-3.7-3.8-3.7c-2.1,0-3.8,1.2-3.8,3.7c0,2.5,1.6,3.7,3.8,3.7
	C251.2,94.9,252.9,93.8,252.9,91.3"/>
<path class="st0" d="M261.2,87.6c-2,0-3.6,1.2-3.6,3.7c0,2.5,1.6,3.7,3.6,3.7c2.1,0,3.2-1,3.3-2.5h2c-0.1,2.4-2.1,4-5.2,4
	c-3,0-5.4-1.7-5.4-5.1c0-3.4,2.5-5.1,5.4-5.1c3.1,0,5,1.5,5.2,3.8h-1.9C264.4,88.7,263.3,87.6,261.2,87.6"/>
<rect x="268" y="86.4" class="st0" width="1.7" height="9.7"/>
<path class="st0" d="M282.5,91.3c0,3.4-2.5,5.1-5.6,5.1c-3.1,0-5.6-1.7-5.6-5.1c0-3.4,2.5-5.1,5.6-5.1
	C280,86.2,282.5,87.8,282.5,91.3 M280.7,91.3c0-2.5-1.6-3.7-3.8-3.7c-2.1,0-3.8,1.2-3.8,3.7c0,2.5,1.6,3.7,3.8,3.7
	C279,94.9,280.7,93.8,280.7,91.3"/>
<path class="st0" d="M288.2,87.6c-1.5,0-2.6,0.4-2.6,1.4c0,0.8,0.6,1.1,1.5,1.2l3.5,0.4c1.5,0.2,2.7,0.8,2.7,2.8c0,2.3-2,3.1-5,3.1
	c-2.8,0-4.9-0.8-5-3.5h1.8c0.1,1.7,1.5,2.1,3.2,2.1c1.8,0,3-0.5,3-1.6c0-1-0.7-1.3-1.6-1.4l-3.4-0.4c-1.5-0.2-2.7-0.8-2.7-2.6
	c0-2,1.9-2.9,4.5-2.9c2.6,0,4.7,0.8,4.8,3.2h-1.8C291.1,87.9,289.8,87.6,288.2,87.6"/>
<path class="st0" d="M293.3,26.3h-6c-0.3,0-0.5,0.2-0.5,0.5c0,0.7-0.1,2-0.1,2.4c0,0.1-0.1,0.1-0.1,0c-2-2.2-5.2-3.6-8.6-3.6
	c-3.4,0-6.9,1.4-9.5,3.9c-2.8,2.7-4.3,6.3-4.3,10.1c0,3.9,1.5,7.5,4.3,10.1c2.6,2.5,6,3.9,9.5,3.9c3.4,0,6.5-1.4,8.6-3.6
	c0,0,0.1,0,0.1,0c0,0.4,0.1,1.7,0.1,2.5c0,0.3,0.2,0.5,0.5,0.5h6c0.3,0,0.5-0.2,0.5-0.5V26.8C293.8,26.5,293.6,26.3,293.3,26.3
	 M279,46.7c-3.9,0-7-3.2-7-7c0-3.9,3.1-7,7-7c3.9,0,7,3.1,7,7C286.1,43.6,282.9,46.7,279,46.7"/>
<path class="st0" d="M225.8,28.9c0-0.4-0.1-1.5-0.1-2.1c0-0.3-0.2-0.5-0.5-0.5h-6c-0.3,0-0.5,0.2-0.5,0.5v25.8
	c0,0.3,0.2,0.5,0.5,0.5h6.7c0.3,0,0.5-0.2,0.5-0.5v-14c0-3.2,2.3-5.9,5-5.9c2.9,0,5.1,2.4,5.1,5.7v14.2c0,0.3,0.2,0.5,0.5,0.5h6.7
	c0.3,0,0.5-0.2,0.5-0.5v-14c0-3.2,2.3-5.9,5-5.9c2.9,0,5,2.4,5,5.7v14.2c0,0.3,0.2,0.5,0.5,0.5h6.7c0.3,0,0.5-0.2,0.5-0.5V38.2
	c0-3.4-1.1-6.6-3.2-8.9c-2.2-2.4-5.3-3.7-8.7-3.7c-3.4,0-6.5,1.4-8.5,4c0,0-0.1,0-0.1,0c-2.1-2.5-5.1-4-8.4-4
	c-2.7,0-5.3,1.2-7.1,3.3C225.8,29,225.8,28.9,225.8,28.9"/>
<path class="st0" d="M207,29.9c0-0.6-0.1-2.3-0.2-3.1c0-0.3-0.2-0.5-0.5-0.5h-6c-0.3,0-0.5,0.2-0.5,0.5v25.8c0,0.3,0.2,0.5,0.5,0.5
	h6.7c0.3,0,0.5-0.2,0.5-0.5V41.1c0-5,3.1-8.2,8-8.2h0.4c0.3,0,0.5-0.2,0.5-0.5v-6.1c0-0.3-0.2-0.5-0.5-0.5c-0.2,0-0.4,0-0.4,0
	c-2.2,0-4.3,0.7-6,1.9c-0.9,0.6-1.7,1.4-2.4,2.3C207.1,30,207,30,207,29.9"/>
<path class="st0" d="M192.8,29.8c-2.8-2.7-6.5-4.1-10.4-4.1c-3.9,0-7.6,1.5-10.4,4.1c-2.8,2.7-4.3,6.2-4.3,9.9c0,7.7,6.6,14,14.7,14
	c8.2,0,14.8-6.3,14.8-14C197.2,36,195.6,32.4,192.8,29.8 M182.3,46.7c-3.8,0-7-3.2-7-7c0-3.8,3.2-7,7-7c3.9,0,7.1,3.1,7.1,7
	C189.4,43.6,186.2,46.7,182.3,46.7"/>
<path class="st0" d="M151.9,24.3v1.9c0,0.1-0.1,0.1-0.1,0.1h-3.9c-0.3,0-0.5,0.2-0.5,0.5v5.5c0,0.3,0.2,0.5,0.5,0.5h3.9
	c0.1,0,0.1,0.1,0.1,0.1v19.6c0,0.3,0.2,0.5,0.5,0.5h6.7c0.3,0,0.5-0.2,0.5-0.5V33c0-0.1,0.1-0.1,0.1-0.1h8.4c0.3,0,0.5-0.2,0.5-0.5
	v-5.5c0-0.3-0.2-0.5-0.5-0.5h-8.4c-0.1,0-0.1-0.1-0.1-0.1v-1.4c0-1.3,0.4-4.3,4.4-4.3c1,0,2,0.2,3.2,0.7c0.2,0.1,0.3,0.1,0.5,0.2
	c0.3,0.1,0.6-0.1,0.7-0.4c0.3-1.9,0.6-3.7,0.9-5.6c0-0.2-0.1-0.5-0.3-0.5l-0.3-0.1c-1.6-0.7-3.5-1-5.5-1c-3.3,0-6.2,1.1-8.2,3.1
	C153,18.7,151.9,21.4,151.9,24.3"/>
<path class="st0" d="M144.7,26.3h-6c-0.3,0-0.5,0.2-0.5,0.5c0,0.8-0.1,1.6-0.1,2.4c0,0.1-0.1,0.1-0.1,0c-2-2.2-5.2-3.6-8.6-3.6
	c-3.4,0-6.9,1.4-9.5,3.9c-2.8,2.7-4.3,6.3-4.3,10.1c0,3.9,1.5,7.5,4.3,10.1c2.6,2.5,6,3.9,9.5,3.9c3.4,0,6.5-1.4,8.6-3.6
	c0,0,0.1,0,0.1,0c0,0.8,0.1,1.6,0.1,2.5c0,0.3,0.2,0.5,0.5,0.5h6c0.3,0,0.5-0.2,0.5-0.5V26.8C145.2,26.5,144.9,26.3,144.7,26.3
	 M130.3,46.7c-3.9,0-7-3.2-7-7c0-3.9,3.1-7,7-7c3.9,0,7,3.1,7,7C137.4,43.6,134.2,46.7,130.3,46.7"/>
<path class="st1" d="M132.6,14.6c-0.1-0.3-0.4-0.5-0.7-0.5c-5.7-1.3-11.5-2.3-17.3-2.8c-0.1,0-0.1-0.1-0.1-0.2
	c0.3-1.2,0.7-2.4,1.1-3.6c0.1-0.4,0-0.8-0.3-1.1c-1.8-1.5-3.9-2.5-6.2-3c-0.6-0.1-1.1,0.2-1.2,0.8c-0.4,2.2-0.8,4.3-1.3,6.4
	c0,0.1-0.1,0.1-0.1,0.1c-2-0.1-4-0.1-6-0.1c-0.1,0-0.1-0.1-0.1-0.2c0.2-1,0.5-1.9,0.7-2.9c0.1-0.4,0-0.7-0.3-1
	c-1.7-1.6-3.9-2.4-6.2-2.3c-0.4,0-0.8,0.3-0.9,0.7c-0.6,2-1.2,4-1.8,6c0,0.1-0.1,0.1-0.1,0.1c-5.4,0.4-10.8,1.2-16.2,2.3
	c-0.4,0.1-0.6,0.3-0.8,0.7c-0.8,2.5,0.1,5.2,2.2,6.8c0.2,0.2,0.5,0.2,0.8,0.2c4-0.8,7.9-1.4,11.9-1.9c0.1,0,0.2,0.1,0.1,0.2
	c-2.8,13.4-3.5,27.2-2.3,40.8c0,0.3,0.2,0.5,0.4,0.7c2.3,1.8,5.1,2.8,7.9,2.8c0.4,0,0.8-0.3,1-0.7c1.3-4.2,2.5-8.3,3.6-12.5
	c0-0.1,0.3-0.1,0.2,0c-0.2,5.4-0.1,10.8,0.3,16.3c0,0.2,0.1,0.4,0.3,0.6c1.9,2.1,4.8,3,7.5,2.3c0.5-0.1,0.8-0.6,0.8-1.1
	c-1.7-16.9-0.6-34,3.2-50.5c0-0.1,0.1-0.1,0.1-0.1c6.4,0.1,12.8,0.6,19.1,1.5c0.5,0.1,1-0.3,1.1-0.8
	C133.4,17.3,133.2,15.9,132.6,14.6 M104.8,18.1c-2.4,9.2-5.5,18.2-9.4,26.9c-0.1,0.1-0.2,0.1-0.2-0.1c0.5-9,1.6-17.8,3.4-26.6
	c0-0.1,0.1-0.1,0.1-0.1c2-0.1,4-0.2,6-0.3C104.8,18,104.9,18.1,104.8,18.1"/>
<path class="st0" d="M77.7,26.3h-6c-0.3,0-0.5,0.2-0.5,0.5c0,0.8-0.1,1.6-0.1,2.4c0,0.1-0.1,0.1-0.1,0c-2-2.2-5.2-3.6-8.6-3.6
	c-3.4,0-6.9,1.4-9.5,3.9c-2.8,2.7-4.3,6.3-4.3,10.1c0,3.9,1.5,7.5,4.3,10.1c2.6,2.5,6,3.9,9.5,3.9c3.4,0,6.5-1.4,8.6-3.6
	c0,0,0.1,0,0.1,0c0,0.8,0.1,1.6,0.1,2.5c0,0.3,0.2,0.5,0.5,0.5h6c0.3,0,0.5-0.2,0.5-0.5V26.8C78.2,26.5,78,26.3,77.7,26.3
	 M63.4,46.7c-3.9,0-7-3.2-7-7c0-3.9,3.1-7,7-7c3.9,0,7,3.1,7,7C70.4,43.6,67.3,46.7,63.4,46.7"/>
<path class="st0" d="M45.4,14.4h-6.7c-0.3,0-0.5,0.2-0.5,0.5v37.7c0,0.3,0.2,0.5,0.5,0.5h6.7c0.3,0,0.5-0.2,0.5-0.5V14.9
	C45.9,14.6,45.7,14.4,45.4,14.4"/>
<path class="st0" d="M31.3,29.6c-2.6-2.5-6.1-3.9-9.5-3.9c-2.1,0-4.2,0.6-6.1,1.6c-0.9,0.5-1.8,1.2-2.5,1.9c0,0-0.1,0-0.1,0
	c0-0.4-0.1-1.7-0.1-2.4c0-0.3-0.2-0.5-0.5-0.5h-6c-0.3,0-0.5,0.2-0.5,0.5v37.1c0,0.3,0.2,0.5,0.5,0.5h6.7c0.3,0,0.5-0.2,0.5-0.5
	V50.4c0-0.1,0.1-0.1,0.1,0c2,2.1,5,3.3,8.2,3.3c3.4,0,6.8-1.4,9.3-3.9c2.7-2.6,4.2-6.2,4.2-10.1C35.5,35.8,34,32.2,31.3,29.6
	 M20.7,46.7c-3.9,0-7-3.2-7-7c0-3.8,3.2-7,7-7c3.8,0,7,3.2,7,7C27.8,43.6,24.6,46.7,20.7,46.7"/>
</svg>
