<svg width="17" height="17" viewBox="0 0 17 17" fill="none" xmlns="http://www.w3.org/2000/svg">
<circle cx="8.5" cy="8.5" r="8" fill="#548DFF" stroke="#E8F4FE"/>
<path d="M11.8298 8.12818L8.94643 5.1536C8.7479 4.9488 8.42647 4.9488 8.2374 5.1536C8.03887 5.35841 8.03887 5.69 8.2374 5.88506L10.27 7.98189H5.50105C5.22689 7.98189 5 8.21595 5 8.49878C5 8.78161 5.22689 9.01567 5.50105 9.01567H10.2605L8.2374 11.1125C8.03887 11.3173 8.03887 11.6489 8.2374 11.844C8.33193 11.9415 8.46429 12 8.59664 12C8.72899 12 8.85189 11.9512 8.95588 11.844L11.8487 8.85963C11.9433 8.7621 12 8.62557 12 8.48903C11.9811 8.36224 11.9244 8.22571 11.8298 8.12818Z" fill="white"/>
</svg>
