<svg width="16" height="16" viewBox="0 0 16 16" fill="none" xmlns="http://www.w3.org/2000/svg">
<path d="M7.99156 16C9.72325 16.0045 11.4089 15.4426 12.7916 14.4C12.8976 14.3203 12.9677 14.2017 12.9864 14.0704C13.0051 13.939 12.9708 13.8056 12.8911 13.6995C12.8114 13.5934 12.6929 13.5234 12.5615 13.5047C12.4301 13.486 12.2968 13.5203 12.1907 13.6C10.9814 14.5126 9.50653 15.004 7.99156 14.9991C6.46773 14.9983 4.98584 14.4999 3.77119 13.5798C2.55653 12.6596 1.67554 11.368 1.26214 9.90134C0.848747 8.43466 0.925563 6.87311 1.48091 5.45408C2.03626 4.03505 3.03976 2.83616 4.33886 2.03968C5.63797 1.24319 7.16161 0.892672 8.67816 1.04141C10.1947 1.19014 11.6212 1.83 12.7408 2.8637C13.8604 3.8974 14.6119 5.26841 14.881 6.76829C15.15 8.26817 14.922 9.81489 14.2316 11.1733C14.0554 11.2036 13.877 11.2191 13.6982 11.2195C13.399 11.2201 13.1028 11.1597 12.8278 11.042C12.5527 10.9244 12.3044 10.7519 12.0982 10.5351C11.9988 10.4198 11.9258 10.2842 11.8843 10.1377C11.8429 9.99118 11.8339 9.83739 11.8582 9.6871C12.0927 9.15555 12.2138 8.58096 12.2138 7.99999C12.2163 7.01446 11.8741 6.05908 11.2465 5.29924C10.6189 4.5394 9.74531 4.02293 8.77705 3.83925C7.80879 3.65557 6.80677 3.81624 5.94448 4.29345C5.08219 4.77065 4.41391 5.53435 4.05532 6.45233C3.69674 7.37031 3.67042 8.38478 3.98094 9.32011C4.29146 10.2554 4.91926 11.0528 5.75565 11.574C6.59204 12.0953 7.58438 12.3077 8.56086 12.1744C9.53734 12.0412 10.4365 11.5707 11.1027 10.8444C11.1679 10.9601 11.2434 11.0696 11.3284 11.1715C11.627 11.5021 11.9919 11.7661 12.3993 11.9462C12.8067 12.1263 13.2474 12.2185 13.6929 12.2169C14.0252 12.217 14.3563 12.1782 14.6796 12.1013H14.6902L14.7471 12.0889L14.788 12.0729L14.8307 12.0462C14.8443 12.039 14.8574 12.0306 14.8698 12.0213C14.8824 12.0116 14.8943 12.0009 14.9053 11.9893C14.918 11.979 14.9299 11.9677 14.9409 11.9555C14.9508 11.9445 14.9597 11.9326 14.9676 11.92C14.9792 11.9053 14.9899 11.8899 14.9996 11.8738C15.8491 10.3387 16.1705 8.56685 15.9141 6.83117C15.6578 5.0955 14.838 3.49222 13.5809 2.26825C12.3239 1.04427 10.6993 0.267487 8.95743 0.0575098C7.21553 -0.152468 5.45291 0.21601 3.94101 1.1062C2.42911 1.99639 1.25177 3.35892 0.590314 4.98396C-0.0711443 6.609 -0.180041 8.40642 0.280394 10.0994C0.740829 11.7924 1.74506 13.2871 3.13844 14.3533C4.53181 15.4195 6.23705 15.9981 7.99156 16ZM7.99156 11.2195C7.35479 11.2195 6.73232 11.0307 6.20287 10.6769C5.67342 10.3232 5.26076 9.82035 5.01708 9.23206C4.7734 8.64376 4.70964 7.99642 4.83387 7.37189C4.9581 6.74735 5.26473 6.17369 5.71499 5.72342C6.16525 5.27316 6.73892 4.96653 7.36346 4.8423C7.98799 4.71808 8.63533 4.78183 9.22363 5.02551C9.81192 5.26919 10.3148 5.68185 10.6685 6.2113C11.0223 6.74076 11.2111 7.36322 11.2111 7.99999C11.2097 8.85343 10.87 9.67152 10.2666 10.275C9.66309 10.8785 8.845 11.2181 7.99156 11.2195Z" fill="#2168F5"/>
</svg>
