<svg width="22" height="16" viewBox="0 0 22 16" fill="none" xmlns="http://www.w3.org/2000/svg">
<path d="M1.49526 12.7212L1.49497 12.7215C1.15055 13.0085 0.95 13.4387 0.95 13.8971V15.2838C0.95 15.5611 1.19427 15.8053 1.47151 15.8053H5.79826C6.07549 15.8053 6.31976 15.5611 6.31976 15.2838C6.31976 15.0066 6.07549 14.7623 5.79826 14.7623H1.99301V13.8971C1.99301 13.7423 2.04374 13.6231 2.16288 13.5516L2.16316 13.5521L2.16882 13.5475C3.24752 12.6649 4.41305 12.0434 4.83811 11.8167C4.89085 11.7886 4.93219 11.7666 4.96055 11.7509C5.17574 11.6572 5.29355 11.4151 5.29355 11.2067V9.23748C5.29355 9.0537 5.20143 8.89973 5.04971 8.8077C4.94967 8.73177 4.87751 8.60769 4.87751 8.48862V6.43618C4.87751 5.71493 5.46531 5.12713 6.18656 5.12713H6.63033C7.35157 5.12713 7.93937 5.71493 7.93937 6.43618V8.46088C7.93937 8.57995 7.86722 8.70404 7.76718 8.77997C7.61546 8.87199 7.52334 9.02597 7.52334 9.20974V10.1805C7.52334 10.4577 7.76761 10.702 8.04484 10.702C8.32208 10.702 8.56635 10.4577 8.56635 10.1805V9.45212C8.81619 9.19481 8.98238 8.82895 8.98238 8.46088V6.43618C8.98238 5.13273 7.93378 4.08412 6.63033 4.08412H6.18656C4.8831 4.08412 3.8345 5.13273 3.8345 6.43618V8.46088C3.8345 8.82662 3.97245 9.1941 4.25054 9.45362V10.9012C4.16225 10.9547 4.05396 11.018 3.9297 11.0905C3.33626 11.4372 2.37849 11.9965 1.49526 12.7212ZM20.0321 13.481V13.531H20.0598V14.7623H8.31673V13.481C8.31673 13.269 8.39654 13.0377 8.57314 12.9115L8.5732 12.9116L8.57556 12.9097C10.1777 11.6114 11.891 10.7541 12.2263 10.5864C12.4396 10.4942 12.588 10.2537 12.588 10.0141V7.49013C12.588 7.30543 12.495 7.15082 12.3419 7.05896L12.3419 7.05895L12.3409 7.05842C12.1655 6.95816 12.061 6.75496 12.061 6.51939V3.8845C12.061 2.88542 12.8712 2.04848 13.8971 2.04848H14.4518C15.4508 2.04848 16.2878 2.85864 16.2878 3.8845V6.51939C16.2878 6.72438 16.1854 6.93058 16.0052 7.06003C15.8531 7.15202 15.7608 7.30614 15.7608 7.49013V10.0141C15.7608 10.2578 15.9128 10.4667 16.1188 10.5845L16.1186 10.5848L16.1244 10.5872C16.453 10.7241 18.196 11.6092 19.7728 12.9093C19.9277 13.0384 20.0321 13.2462 20.0321 13.481ZM7.76749 15.8053H20.5536C20.8583 15.8053 21.0768 15.5606 21.0474 15.2811V13.481C21.0474 12.94 20.8194 12.426 20.3908 12.083C18.9389 10.9051 17.4065 10.0513 16.7761 9.73361V7.70607C17.1096 7.39181 17.3031 6.94135 17.3031 6.46392V3.82903C17.3031 2.24822 16.0048 0.95 14.424 0.95H13.8693C12.2885 0.95 10.9903 2.24822 10.9903 3.82903V6.46392C10.9903 6.94135 11.1837 7.39181 11.5173 7.70607V9.73361C10.8868 10.0513 9.35445 10.9051 7.90253 12.083C7.47389 12.426 7.24598 12.94 7.24598 13.481V15.2838C7.24598 15.5611 7.49025 15.8053 7.76749 15.8053Z" fill="#2168F5" stroke="#2168F5" stroke-width="0.1"/>
</svg>
