<svg width="13" height="19" viewBox="0 0 13 19" fill="none" xmlns="http://www.w3.org/2000/svg">
<path fill-rule="evenodd" clip-rule="evenodd" d="M6.5005 0C2.91549 0 0 2.95578 0 6.5891C0 8.78177 1.06487 10.8103 2.85589 12.0406C3.00886 12.2862 3.11813 12.6114 3.18071 13.007C3.23634 13.3604 3.56415 13.601 3.91381 13.5446C4.26247 13.4883 4.49989 13.155 4.44426 12.8017C4.34194 12.1513 4.13433 11.6087 3.82937 11.1869C3.78368 11.1234 3.72706 11.0691 3.6615 11.0268C2.16948 10.0442 1.27844 8.38612 1.27844 6.5891C1.27844 3.67056 3.62077 1.29668 6.4995 1.29668C9.37824 1.29668 11.7206 3.67056 11.7206 6.5891C11.7206 8.1878 10.7401 10.0462 9.33652 11.1083C9.2799 11.1516 9.23122 11.203 9.1905 11.2624C8.77825 11.8745 8.57958 12.2973 8.48124 12.7715C8.40873 13.1218 8.63024 13.4661 8.97593 13.5396C9.02063 13.5497 9.06434 13.5537 9.10805 13.5537C9.40407 13.5537 9.67028 13.3433 9.73386 13.0383C9.78253 12.8017 9.87889 12.554 10.1908 12.0798C11.6033 10.9684 13 8.86634 13 6.5901C13.001 2.95679 10.0855 0 6.5005 0ZM3.21648 15.4534C3.21648 15.8118 3.50256 16.1017 3.8562 16.1017H6.47368L6.56209 16.0967C6.61573 16.0937 6.66639 16.0926 6.72003 16.0967L9.37923 16.1017C9.73287 16.1017 10.019 15.8118 10.019 15.4534C10.019 15.095 9.73287 14.805 9.37923 14.805H6.8581L6.79751 14.802C6.69222 14.796 6.5899 14.796 6.4856 14.802L3.8562 14.805C3.50256 14.805 3.21648 15.095 3.21648 15.4534ZM8.60044 17.181C8.95407 17.181 9.24015 17.4709 9.24015 17.8293C9.24015 18.1867 8.95407 18.4777 8.60044 18.4777H6.77366C6.76931 18.4777 6.76472 18.4774 6.76001 18.4772C6.75505 18.4769 6.74995 18.4766 6.74485 18.4766C6.72655 18.476 6.70868 18.4745 6.69068 18.4729C6.68132 18.4721 6.67192 18.4713 6.66241 18.4706L6.63261 18.4686L6.60678 18.4706C6.57996 18.4736 6.55314 18.4756 6.52731 18.4766C6.51738 18.4777 6.50744 18.4777 6.49751 18.4777H4.63497C4.28134 18.4777 3.99525 18.1877 3.99525 17.8293C3.99525 17.4709 4.28134 17.181 4.63497 17.181L6.4995 17.179C6.59088 17.1709 6.67929 17.1709 6.77068 17.179L6.79452 17.181H8.60044Z" fill="#2168F5"/>
</svg>
